<?xml version="1.0" encoding="UTF-8"?>
<svg enable-background="new 0 0 155 50" version="1.1" viewBox="0 0 155 50" xml:space="preserve" xmlns="http://www.w3.org/2000/svg" xmlns:cc="http://creativecommons.org/ns#" xmlns:dc="http://purl.org/dc/elements/1.1/" xmlns:rdf="http://www.w3.org/1999/02/22-rdf-syntax-ns#"><metadata><rdf:RDF><cc:Work rdf:about=""><dc:format>image/svg+xml</dc:format><dc:type rdf:resource="http://purl.org/dc/dcmitype/StillImage"/><dc:title/></cc:Work></rdf:RDF></metadata><path d="m27.443 25.161c3.546 0 7.574 0.24 7.574 11.721 0 10.459-3.486 10.939-8.866 10.939h-2.074v-22.66h3.366m-0.36 2.554v17.552c4.958 0.15 4.749-4.539 4.749-8.385 0-3.486 0.33-9.467-4.749-9.167z" fill="#fff"/><path d="m42.362 45.868h-0.06c-0.572 1.322-1.172 2.193-2.795 2.193-3.517 0-3.576-5.56-3.576-8.024 0-2.524 0.09-7.634 3.666-7.634 1.323 0 2.194 0.813 2.706 1.924h0.06v-1.684h2.825v15.178h-2.825v-1.953m0.09-5.65c0-1.203 0.12-5.29-1.773-5.29-2.104 0-1.863 4.058-1.863 5.29 0 1.262-0.24 5.319 1.863 5.319 1.893 0 1.773-4.118 1.773-5.319z" fill="#fff"/><path d="m49.817 34.387h0.06c0.631-1.232 1.563-1.983 3.065-1.983 3.005 0 3.096 2.675 3.096 4.989v10.429h-2.825v-10.489c0-1.053-0.181-2.405-1.683-2.405-1.863 0-1.713 2.134-1.713 3.427v9.467h-2.825v-15.178h2.825v1.743" fill="#fff"/><path d="m64.086 35.739c-0.541-0.48-1.413-0.812-2.104-0.812-1.052 0-1.923 0.602-1.923 1.624 0.06 2.554 4.749 2.674 4.749 7.001 0 2.676-1.653 4.509-4.358 4.509-0.992 0-1.623-0.211-2.464-0.721v-2.766c0.721 0.571 1.382 0.962 2.344 0.962 1.232 0 1.893-0.752 1.893-1.925 0-2.674-4.749-2.854-4.749-7.061 0-2.404 1.653-4.148 4.057-4.148 0.962 0 1.743 0.181 2.555 0.662v2.675" fill="#fff"/><polyline points="69.115 25.397 69.115 39.376 69.175 39.376 72.691 32.644 75.847 32.644 71.97 39.376 76.357 47.821 73.082 47.821 69.175 39.767 69.115 39.767 69.115 47.821 66.29 47.821 66.29 25.397 69.115 25.397" fill="#fff"/><path d="m92.221 35.86v0.359c0 4.328 0.631 11.902-5.41 11.902-5.379 0-6.011-5.17-6.011-11.57 0-6.342 0.511-11.691 5.74-11.691 3.216 0 4.749 1.623 5.529 4.628l-2.854 1.172c-0.301-1.503-0.721-2.975-2.585-2.975-2.464 0-2.644 3.366-2.644 8.835 0 7.875 1.32 8.776 2.644 8.776 1.232 0 2.585-0.181 2.585-5.591v-1.232h-2.525v-2.613h5.531" fill="#fff"/><path d="m100.28 45.868h-0.061c-0.572 1.322-1.173 2.193-2.795 2.193-3.516 0-3.576-5.56-3.576-8.024 0-2.524 0.09-7.634 3.666-7.634 1.322 0 2.193 0.813 2.705 1.924h0.061v-1.684h2.824v15.178h-2.824v-1.953m0.09-5.65c0-1.203 0.12-5.29-1.773-5.29-2.104 0-1.863 4.058-1.863 5.29 0 1.262-0.24 5.319 1.863 5.319 1.893 0 1.773-4.118 1.773-5.319z" fill="#fff"/><path d="m107.72 34.507h0.061c0.661-1.322 1.652-2.104 3.215-2.104v2.795l-0.48-0.029c-2.104 0-2.764 1.172-2.764 3.095v9.558h-2.855v-15.178h2.824v1.863" fill="#fff"/><polyline points="116.37 28.347 116.37 32.644 117.88 32.644 117.88 34.868 116.37 34.868 116.37 47.821 113.55 47.821 113.55 34.868 112.02 34.868 112.02 32.644 113.55 32.644 113.55 28.347 116.37 28.347" fill="#fff"/><path d="m122.44 34.387h0.06c0.63-1.232 1.563-1.983 3.065-1.983 3.004 0 3.096 2.675 3.096 4.989v10.429h-2.826v-10.489c0-1.053-0.18-2.405-1.682-2.405-1.863 0-1.713 2.134-1.713 3.427v9.467h-2.825v-15.178h2.825v1.743" fill="#fff"/><path d="m133.33 40.788c0 1.263-0.061 4.749 1.773 4.749 1.502 0 1.773-1.653 1.773-2.825h2.614c0 2.795-1.232 5.35-4.418 5.35-4.237 0-4.629-4.509-4.629-7.724 0-3.096 0.361-7.935 4.538-7.935 4.117 0 4.599 4.809 4.599 7.935v0.45h-6.25m3.365-2.013c0-1.172 0-3.848-1.713-3.848-1.771 0-1.652 2.676-1.652 3.848h3.365z" fill="#fff"/><path d="m144.19 34.507h0.061c0.66-1.322 1.652-2.104 3.215-2.104v2.795l-0.48-0.029c-2.104 0-2.766 1.172-2.766 3.095v9.558h-2.854v-15.178h2.825v1.863" fill="#fff"/><polyline points="152.02 47.821 149.19 47.821 149.19 32.644 152.02 32.644 152.02 47.821" fill="#fff"/><path d="m6.764 24.854c0.632 3.338 1.712 6.027 3.184 7.952 0.811 1.063 1.743 1.896 2.781 2.479 2.184 1.225 4.447 1.141 5.809 0.681 3.172-5.067 3.075-11.772-0.767-16.806-3.642-4.766-9.615-6.689-15.102-5.408 0.157 0.161 0.318 0.339 0.479 0.548 1.252 1.646 2.504 4.677 3.616 10.554" fill="#6A971F"/><path d="m35.615 3.499c0.128-0.18 0.258-0.329 0.388-0.467-4.601-0.967-9.546 0.745-12.497 4.786-3.113 4.27-3.071 9.86-0.332 14.03 1.144 0.357 3.031 0.386 4.83-0.676 0.858-0.504 1.619-1.216 2.276-2.117 1.192-1.635 2.043-3.894 2.511-6.691 0.817-4.922 1.808-7.47 2.824-8.865" fill="#6A971F"/><polyline points="2.668 2.769 2.668 48.122 152.49 48.122 152.49 2.769" fill="none"/><path d="m17.391 4.022c4e-3 -0.104 0.017-0.199 0.031-0.286-2.07 0.821-3.574 2.792-3.681 5.158-0.112 2.499 1.368 4.695 3.538 5.626 0.546-0.158 1.298-0.641 1.731-1.531 0.206-0.424 0.321-0.903 0.345-1.43 0.042-0.958-0.211-2.072-0.76-3.299-0.965-2.156-1.242-3.422-1.204-4.238" fill="#A5BD76"/><path d="m152.49 29.896c0 1.037-0.842 1.878-1.88 1.878-1.037 0-1.879-0.841-1.879-1.878 0-1.038 0.842-1.879 1.879-1.879 1.039 0 1.88 0.84 1.88 1.879" fill="#fff"/><rect x="2.668" y="2.768" width="149.82" height="45.354" fill="none"/></svg>